<mxfile host="app.diagrams.net" agent="Mozilla/5.0 (Windows NT 10.0; Win64; x64) AppleWebKit/537.36 (KHTML, like Gecko) Chrome/137.0.0.0 Safari/537.36 Edg/137.0.0.0" version="27.1.6">
  <diagram id="prtHgNgQTEPvFCAcTncT" name="Page-1">
    <mxGraphModel dx="3072" dy="756" grid="1" gridSize="10" guides="1" tooltips="1" connect="1" arrows="1" fold="1" page="1" pageScale="1" pageWidth="827" pageHeight="1169" math="0" shadow="0">
      <root>
        <mxCell id="0" />
        <mxCell id="1" parent="0" />
        <mxCell id="dNxyNK7c78bLwvsdeMH5-11" value="Orgchart" style="swimlane;html=1;startSize=20;horizontal=1;containerType=tree;glass=0;" parent="1" vertex="1">
          <mxGeometry x="-1580" y="20" width="2440" height="710" as="geometry" />
        </mxCell>
        <mxCell id="BtHL0e1dHnn02Y5CUmkc-42" style="edgeStyle=orthogonalEdgeStyle;rounded=0;orthogonalLoop=1;jettySize=auto;html=1;exitX=0.5;exitY=1;exitDx=0;exitDy=0;entryX=0.5;entryY=0;entryDx=0;entryDy=0;" edge="1" parent="dNxyNK7c78bLwvsdeMH5-11" source="BtHL0e1dHnn02Y5CUmkc-1" target="BtHL0e1dHnn02Y5CUmkc-41">
          <mxGeometry relative="1" as="geometry" />
        </mxCell>
        <mxCell id="BtHL0e1dHnn02Y5CUmkc-1" value="Main" style="rounded=0;whiteSpace=wrap;html=1;" vertex="1" parent="dNxyNK7c78bLwvsdeMH5-11">
          <mxGeometry x="730" y="40" width="80" height="30" as="geometry" />
        </mxCell>
        <mxCell id="BtHL0e1dHnn02Y5CUmkc-2" value="TaskScheduler" style="rounded=0;whiteSpace=wrap;html=1;" vertex="1" parent="dNxyNK7c78bLwvsdeMH5-11">
          <mxGeometry x="250" y="120" width="100" height="30" as="geometry" />
        </mxCell>
        <mxCell id="BtHL0e1dHnn02Y5CUmkc-37" style="edgeStyle=orthogonalEdgeStyle;rounded=0;orthogonalLoop=1;jettySize=auto;html=1;exitX=0.5;exitY=1;exitDx=0;exitDy=0;entryX=1;entryY=0.5;entryDx=0;entryDy=0;" edge="1" parent="dNxyNK7c78bLwvsdeMH5-11" source="BtHL0e1dHnn02Y5CUmkc-3" target="BtHL0e1dHnn02Y5CUmkc-15">
          <mxGeometry relative="1" as="geometry" />
        </mxCell>
        <mxCell id="BtHL0e1dHnn02Y5CUmkc-3" value="InterruptStartButton" style="rounded=0;whiteSpace=wrap;html=1;" vertex="1" parent="dNxyNK7c78bLwvsdeMH5-11">
          <mxGeometry x="870" y="120" width="120" height="30" as="geometry" />
        </mxCell>
        <mxCell id="BtHL0e1dHnn02Y5CUmkc-38" style="edgeStyle=orthogonalEdgeStyle;rounded=0;orthogonalLoop=1;jettySize=auto;html=1;exitX=0.5;exitY=1;exitDx=0;exitDy=0;entryX=1;entryY=0.5;entryDx=0;entryDy=0;" edge="1" parent="dNxyNK7c78bLwvsdeMH5-11" source="BtHL0e1dHnn02Y5CUmkc-4" target="BtHL0e1dHnn02Y5CUmkc-26">
          <mxGeometry relative="1" as="geometry" />
        </mxCell>
        <mxCell id="BtHL0e1dHnn02Y5CUmkc-4" value="InterruptKeyPad" style="rounded=0;whiteSpace=wrap;html=1;" vertex="1" parent="dNxyNK7c78bLwvsdeMH5-11">
          <mxGeometry x="1250" y="120" width="120" height="30" as="geometry" />
        </mxCell>
        <mxCell id="BtHL0e1dHnn02Y5CUmkc-7" value="" style="edgeStyle=elbowEdgeStyle;elbow=vertical;endArrow=classic;html=1;curved=0;rounded=0;endSize=8;startSize=8;entryX=0.5;entryY=0;entryDx=0;entryDy=0;exitX=0.5;exitY=1;exitDx=0;exitDy=0;" edge="1" parent="dNxyNK7c78bLwvsdeMH5-11" source="BtHL0e1dHnn02Y5CUmkc-1" target="BtHL0e1dHnn02Y5CUmkc-2">
          <mxGeometry width="50" height="50" relative="1" as="geometry">
            <mxPoint x="590" y="100" as="sourcePoint" />
            <mxPoint x="640" y="50" as="targetPoint" />
          </mxGeometry>
        </mxCell>
        <mxCell id="BtHL0e1dHnn02Y5CUmkc-8" value="" style="edgeStyle=elbowEdgeStyle;elbow=vertical;endArrow=classic;html=1;curved=0;rounded=0;endSize=8;startSize=8;entryX=0.5;entryY=0;entryDx=0;entryDy=0;exitX=0.5;exitY=1;exitDx=0;exitDy=0;" edge="1" parent="dNxyNK7c78bLwvsdeMH5-11" source="BtHL0e1dHnn02Y5CUmkc-1" target="BtHL0e1dHnn02Y5CUmkc-3">
          <mxGeometry width="50" height="50" relative="1" as="geometry">
            <mxPoint x="1040" y="120" as="sourcePoint" />
            <mxPoint x="680" y="150" as="targetPoint" />
          </mxGeometry>
        </mxCell>
        <mxCell id="BtHL0e1dHnn02Y5CUmkc-9" value="" style="edgeStyle=elbowEdgeStyle;elbow=vertical;endArrow=classic;html=1;curved=0;rounded=0;endSize=8;startSize=8;entryX=0.5;entryY=0;entryDx=0;entryDy=0;exitX=0.5;exitY=1;exitDx=0;exitDy=0;" edge="1" parent="dNxyNK7c78bLwvsdeMH5-11" source="BtHL0e1dHnn02Y5CUmkc-1" target="BtHL0e1dHnn02Y5CUmkc-4">
          <mxGeometry width="50" height="50" relative="1" as="geometry">
            <mxPoint x="980" y="70" as="sourcePoint" />
            <mxPoint x="1140" y="90" as="targetPoint" />
          </mxGeometry>
        </mxCell>
        <mxCell id="BtHL0e1dHnn02Y5CUmkc-11" value="CollectInputData" style="rounded=0;whiteSpace=wrap;html=1;" vertex="1" parent="dNxyNK7c78bLwvsdeMH5-11">
          <mxGeometry x="250" y="180" width="100" height="30" as="geometry" />
        </mxCell>
        <mxCell id="BtHL0e1dHnn02Y5CUmkc-30" style="edgeStyle=orthogonalEdgeStyle;rounded=0;orthogonalLoop=1;jettySize=auto;html=1;exitX=0.5;exitY=1;exitDx=0;exitDy=0;entryX=0.5;entryY=0;entryDx=0;entryDy=0;" edge="1" parent="dNxyNK7c78bLwvsdeMH5-11" source="BtHL0e1dHnn02Y5CUmkc-13" target="BtHL0e1dHnn02Y5CUmkc-29">
          <mxGeometry relative="1" as="geometry" />
        </mxCell>
        <mxCell id="BtHL0e1dHnn02Y5CUmkc-13" value="FaultDetection" style="rounded=0;whiteSpace=wrap;html=1;" vertex="1" parent="dNxyNK7c78bLwvsdeMH5-11">
          <mxGeometry x="150" y="270" width="100" height="30" as="geometry" />
        </mxCell>
        <mxCell id="BtHL0e1dHnn02Y5CUmkc-31" style="edgeStyle=orthogonalEdgeStyle;rounded=0;orthogonalLoop=1;jettySize=auto;html=1;exitX=0.5;exitY=1;exitDx=0;exitDy=0;entryX=0.5;entryY=0;entryDx=0;entryDy=0;" edge="1" parent="dNxyNK7c78bLwvsdeMH5-11" source="BtHL0e1dHnn02Y5CUmkc-15" target="BtHL0e1dHnn02Y5CUmkc-29">
          <mxGeometry relative="1" as="geometry" />
        </mxCell>
        <mxCell id="BtHL0e1dHnn02Y5CUmkc-15" value="StartCondition" style="rounded=0;whiteSpace=wrap;html=1;" vertex="1" parent="dNxyNK7c78bLwvsdeMH5-11">
          <mxGeometry x="340" y="270" width="100" height="30" as="geometry" />
        </mxCell>
        <mxCell id="BtHL0e1dHnn02Y5CUmkc-32" style="edgeStyle=orthogonalEdgeStyle;rounded=0;orthogonalLoop=1;jettySize=auto;html=1;entryX=0.5;entryY=0;entryDx=0;entryDy=0;exitX=0.5;exitY=1;exitDx=0;exitDy=0;" edge="1" parent="dNxyNK7c78bLwvsdeMH5-11" source="BtHL0e1dHnn02Y5CUmkc-29" target="BtHL0e1dHnn02Y5CUmkc-16">
          <mxGeometry relative="1" as="geometry">
            <mxPoint x="290" y="500" as="sourcePoint" />
          </mxGeometry>
        </mxCell>
        <mxCell id="BtHL0e1dHnn02Y5CUmkc-40" style="edgeStyle=orthogonalEdgeStyle;rounded=0;orthogonalLoop=1;jettySize=auto;html=1;exitX=0.5;exitY=1;exitDx=0;exitDy=0;entryX=0.5;entryY=0;entryDx=0;entryDy=0;" edge="1" parent="dNxyNK7c78bLwvsdeMH5-11" source="BtHL0e1dHnn02Y5CUmkc-16" target="BtHL0e1dHnn02Y5CUmkc-39">
          <mxGeometry relative="1" as="geometry" />
        </mxCell>
        <mxCell id="BtHL0e1dHnn02Y5CUmkc-16" value="HaySteamerProgram" style="rounded=0;whiteSpace=wrap;html=1;" vertex="1" parent="dNxyNK7c78bLwvsdeMH5-11">
          <mxGeometry x="235" y="490" width="130" height="30" as="geometry" />
        </mxCell>
        <mxCell id="BtHL0e1dHnn02Y5CUmkc-19" value="" style="edgeStyle=elbowEdgeStyle;elbow=vertical;endArrow=classic;html=1;curved=0;rounded=0;endSize=8;startSize=8;exitX=0.5;exitY=1;exitDx=0;exitDy=0;entryX=0.5;entryY=0;entryDx=0;entryDy=0;" edge="1" parent="dNxyNK7c78bLwvsdeMH5-11" source="BtHL0e1dHnn02Y5CUmkc-2" target="BtHL0e1dHnn02Y5CUmkc-11">
          <mxGeometry width="50" height="50" relative="1" as="geometry">
            <mxPoint x="550" y="280" as="sourcePoint" />
            <mxPoint x="600" y="230" as="targetPoint" />
          </mxGeometry>
        </mxCell>
        <mxCell id="BtHL0e1dHnn02Y5CUmkc-20" value="" style="edgeStyle=elbowEdgeStyle;elbow=vertical;endArrow=classic;html=1;curved=0;rounded=0;endSize=8;startSize=8;exitX=0.5;exitY=1;exitDx=0;exitDy=0;entryX=0.5;entryY=0;entryDx=0;entryDy=0;" edge="1" parent="dNxyNK7c78bLwvsdeMH5-11" source="BtHL0e1dHnn02Y5CUmkc-11" target="BtHL0e1dHnn02Y5CUmkc-13">
          <mxGeometry width="50" height="50" relative="1" as="geometry">
            <mxPoint x="550" y="280" as="sourcePoint" />
            <mxPoint x="600" y="230" as="targetPoint" />
          </mxGeometry>
        </mxCell>
        <mxCell id="BtHL0e1dHnn02Y5CUmkc-21" value="" style="edgeStyle=elbowEdgeStyle;elbow=vertical;endArrow=classic;html=1;curved=0;rounded=0;endSize=8;startSize=8;exitX=0.5;exitY=1;exitDx=0;exitDy=0;" edge="1" parent="dNxyNK7c78bLwvsdeMH5-11" source="BtHL0e1dHnn02Y5CUmkc-11" target="BtHL0e1dHnn02Y5CUmkc-15">
          <mxGeometry width="50" height="50" relative="1" as="geometry">
            <mxPoint x="550" y="280" as="sourcePoint" />
            <mxPoint x="600" y="230" as="targetPoint" />
          </mxGeometry>
        </mxCell>
        <mxCell id="BtHL0e1dHnn02Y5CUmkc-26" value="ConfigData" style="rounded=0;whiteSpace=wrap;html=1;" vertex="1" parent="dNxyNK7c78bLwvsdeMH5-11">
          <mxGeometry x="440" y="490" width="130" height="30" as="geometry" />
        </mxCell>
        <mxCell id="BtHL0e1dHnn02Y5CUmkc-27" value="" style="edgeStyle=elbowEdgeStyle;elbow=vertical;endArrow=classic;html=1;curved=0;rounded=0;endSize=8;startSize=8;exitX=0;exitY=0.5;exitDx=0;exitDy=0;entryX=1;entryY=0.5;entryDx=0;entryDy=0;" edge="1" parent="dNxyNK7c78bLwvsdeMH5-11" source="BtHL0e1dHnn02Y5CUmkc-26" target="BtHL0e1dHnn02Y5CUmkc-16">
          <mxGeometry width="50" height="50" relative="1" as="geometry">
            <mxPoint x="550" y="280" as="sourcePoint" />
            <mxPoint x="600" y="230" as="targetPoint" />
          </mxGeometry>
        </mxCell>
        <mxCell id="BtHL0e1dHnn02Y5CUmkc-29" value="StateMachine" style="rounded=0;whiteSpace=wrap;html=1;" vertex="1" parent="dNxyNK7c78bLwvsdeMH5-11">
          <mxGeometry x="250" y="400" width="100" height="30" as="geometry" />
        </mxCell>
        <mxCell id="BtHL0e1dHnn02Y5CUmkc-35" style="edgeStyle=orthogonalEdgeStyle;rounded=0;orthogonalLoop=1;jettySize=auto;html=1;exitX=0.5;exitY=0;exitDx=0;exitDy=0;entryX=0.5;entryY=1;entryDx=0;entryDy=0;startArrow=classic;startFill=1;endArrow=none;" edge="1" parent="dNxyNK7c78bLwvsdeMH5-11" source="BtHL0e1dHnn02Y5CUmkc-33" target="BtHL0e1dHnn02Y5CUmkc-1">
          <mxGeometry relative="1" as="geometry" />
        </mxCell>
        <mxCell id="BtHL0e1dHnn02Y5CUmkc-33" value="Watchdog" style="rounded=0;whiteSpace=wrap;html=1;" vertex="1" parent="dNxyNK7c78bLwvsdeMH5-11">
          <mxGeometry x="480" y="120" width="100" height="30" as="geometry" />
        </mxCell>
        <mxCell id="BtHL0e1dHnn02Y5CUmkc-36" style="edgeStyle=orthogonalEdgeStyle;rounded=0;orthogonalLoop=1;jettySize=auto;html=1;exitX=0.5;exitY=0;exitDx=0;exitDy=0;entryX=0.5;entryY=1;entryDx=0;entryDy=0;startArrow=classic;startFill=1;endArrow=none;" edge="1" parent="dNxyNK7c78bLwvsdeMH5-11" source="BtHL0e1dHnn02Y5CUmkc-34" target="BtHL0e1dHnn02Y5CUmkc-1">
          <mxGeometry relative="1" as="geometry" />
        </mxCell>
        <mxCell id="BtHL0e1dHnn02Y5CUmkc-34" value="Logging" style="rounded=0;whiteSpace=wrap;html=1;" vertex="1" parent="dNxyNK7c78bLwvsdeMH5-11">
          <mxGeometry x="680" y="120" width="100" height="30" as="geometry" />
        </mxCell>
        <mxCell id="BtHL0e1dHnn02Y5CUmkc-39" value="OutputDrivers" style="rounded=0;whiteSpace=wrap;html=1;" vertex="1" parent="dNxyNK7c78bLwvsdeMH5-11">
          <mxGeometry x="235" y="550" width="130" height="30" as="geometry" />
        </mxCell>
        <mxCell id="BtHL0e1dHnn02Y5CUmkc-45" style="edgeStyle=orthogonalEdgeStyle;rounded=0;orthogonalLoop=1;jettySize=auto;html=1;exitX=0.5;exitY=1;exitDx=0;exitDy=0;entryX=1;entryY=0.5;entryDx=0;entryDy=0;" edge="1" parent="dNxyNK7c78bLwvsdeMH5-11" source="BtHL0e1dHnn02Y5CUmkc-41" target="BtHL0e1dHnn02Y5CUmkc-26">
          <mxGeometry relative="1" as="geometry" />
        </mxCell>
        <mxCell id="BtHL0e1dHnn02Y5CUmkc-46" style="edgeStyle=orthogonalEdgeStyle;rounded=0;orthogonalLoop=1;jettySize=auto;html=1;exitX=0.5;exitY=1;exitDx=0;exitDy=0;entryX=1;entryY=0.5;entryDx=0;entryDy=0;jumpStyle=arc;jumpSize=13;" edge="1" parent="dNxyNK7c78bLwvsdeMH5-11" source="BtHL0e1dHnn02Y5CUmkc-41" target="BtHL0e1dHnn02Y5CUmkc-15">
          <mxGeometry relative="1" as="geometry" />
        </mxCell>
        <mxCell id="BtHL0e1dHnn02Y5CUmkc-41" value="Communication_REST" style="rounded=0;whiteSpace=wrap;html=1;" vertex="1" parent="dNxyNK7c78bLwvsdeMH5-11">
          <mxGeometry x="1060" y="120" width="140" height="30" as="geometry" />
        </mxCell>
      </root>
    </mxGraphModel>
  </diagram>
</mxfile>
